<svg height="638.601" viewBox="0 0 494.836 638.601" width="494.836" xmlns="http://www.w3.org/2000/svg" xmlns:xlink="http://www.w3.org/1999/xlink">
    <clipPath id="a">
        <path d="m319.3 0c176.345 0-67.066 208.923 88.593 319.3s87.752 319.3-88.593 319.3-319.3-142.955-319.3-319.3 142.956-319.3 319.3-319.3z" transform="translate(297.858 1341)"/>
    </clipPath>
    <linearGradient id="softBlueGreyGradient" gradientUnits="objectBoundingBox" x1=".5" x2=".5" y2="1">
        <stop offset="0" stop-color="#f0f4f7"/>
        <stop offset="1" stop-color="#cfd3d6"/>
    </linearGradient>
    <path d="m319.3 0c176.345 0-67.066 208.923 88.593 319.3s87.752 319.3-88.593 319.3-319.3-142.955-319.3-319.3 142.956-319.3 319.3-319.3z" fill="#e8ecef"/>
    <g clip-path="url(#a)" transform="translate(-297.858 -1341)">
        <path d="m319.3 0c176.345 0-67.066 208.923 88.593 319.3s87.752 319.3-88.593 319.3-319.3-142.955-319.3-319.3 142.956-319.3 319.3-319.3z" fill="url(#softBlueGreyGradient)" opacity=".3" transform="matrix(-1 0 0 -1 792.694 1979.601)"/>
    </g>
</svg>
