<svg xmlns="http://www.w3.org/2000/svg" xmlns:xlink="http://www.w3.org/1999/xlink" width="1920" zoomAndPan="magnify" viewBox="0 0 1440 809.999993" height="1080" preserveAspectRatio="xMidYMid meet" version="1.0"><defs><clipPath id="d95c94c356"><path d="M 359 98 L 1067 98 L 1067 805.503906 L 359 805.503906 Z M 359 98 " clip-rule="nonzero"/></clipPath><clipPath id="678bebe187"><path d="M 465 552 L 939 552 L 939 805.503906 L 465 805.503906 Z M 465 552 " clip-rule="nonzero"/></clipPath><clipPath id="9e2d7a910c"><path d="M 763 675 L 784 675 L 784 805.503906 L 763 805.503906 Z M 763 675 " clip-rule="nonzero"/></clipPath><clipPath id="dfc70712ce"><path d="M 712 4.503906 L 935 4.503906 L 935 193 L 712 193 Z M 712 4.503906 " clip-rule="nonzero"/></clipPath></defs><g clip-path="url(#d95c94c356)"><path fill="#1c3879" d="M 1066.027344 451.71875 C 1066.027344 514.476562 1049.753906 573.054688 1021.398438 624.191406 C 1000.011719 662.308594 972.121094 695.78125 938.648438 723.675781 C 897.273438 758.074219 847.996094 783.179688 794.070312 795.730469 C 768.039062 801.773438 740.609375 805.027344 712.71875 805.027344 C 616.488281 805.027344 529.089844 766.441406 465.402344 704.148438 C 400.316406 640.460938 359.410156 550.738281 359.410156 451.71875 C 359.410156 256.46875 517.46875 98.410156 712.71875 98.410156 C 907.96875 98.410156 1066.027344 256.933594 1066.027344 451.71875 Z M 1066.027344 451.71875 " fill-opacity="1" fill-rule="nonzero"/></g><path fill="#000000" d="M 454.242188 448.929688 C 454.242188 448.929688 402.640625 171.398438 728.988281 171.398438 C 951.664062 171.398438 891.230469 422.433594 891.230469 422.433594 Z M 454.242188 448.929688 " fill-opacity="1" fill-rule="nonzero"/><g clip-path="url(#678bebe187)"><path fill="#93c5e4" d="M 938.648438 723.675781 C 897.273438 758.074219 847.996094 783.179688 794.070312 795.730469 C 768.039062 801.773438 740.609375 805.027344 712.71875 805.027344 C 616.488281 805.027344 529.089844 766.441406 465.402344 704.148438 C 483.53125 666.492188 507.242188 617.683594 537.457031 555.851562 L 803.367188 552.132812 C 803.367188 552.132812 831.261719 579.097656 868.453125 625.121094 C 889.835938 652.082031 914.476562 685.089844 938.648438 723.675781 Z M 938.648438 723.675781 " fill-opacity="1" fill-rule="nonzero"/></g><path fill="#f6c79d" d="M 900.527344 513.546875 C 900.527344 513.546875 908.898438 400.117188 892.625 332.246094 C 884.722656 298.773438 910.757812 286.222656 933.070312 313.648438 C 933.070312 313.648438 931.675781 283.898438 946.085938 274.601562 C 960.964844 265.300781 983.277344 289.941406 987.925781 313.648438 C 987.925781 313.648438 992.574219 295.519531 1003.265625 291.335938 C 1013.960938 287.152344 1037.203125 299.703125 1039.992188 345.261719 C 1042.78125 390.820312 1042.316406 450.324219 1020.933594 518.664062 Z M 900.527344 513.546875 " fill-opacity="1" fill-rule="nonzero"/><path fill="#f6c79d" d="M 877.886719 433.59375 C 878.167969 436.800781 878.367188 440.011719 878.484375 443.226562 C 878.597656 446.445312 878.628906 449.664062 878.578125 452.882812 C 878.527344 456.101562 878.394531 459.320312 878.175781 462.535156 C 877.957031 465.75 877.65625 468.957031 877.273438 472.160156 C 876.890625 475.363281 876.425781 478.554688 875.875 481.734375 C 875.328125 484.917969 874.699219 488.085938 873.984375 491.238281 C 873.273438 494.394531 872.480469 497.53125 871.605469 500.648438 C 870.734375 503.765625 869.777344 506.863281 868.746094 509.941406 C 867.710938 513.015625 866.601562 516.066406 865.410156 519.089844 C 864.21875 522.117188 862.949219 525.113281 861.605469 528.078125 C 860.257812 531.046875 858.839844 533.980469 857.339844 536.882812 C 855.84375 539.785156 854.273438 542.652344 852.632812 545.484375 C 850.988281 548.3125 849.269531 551.105469 847.484375 553.855469 C 845.695312 556.609375 843.839844 559.316406 841.910156 561.984375 C 839.984375 564.652344 837.992188 567.273438 835.929688 569.847656 C 833.867188 572.421875 831.742188 574.945312 829.550781 577.421875 C 827.359375 579.898438 825.105469 582.324219 822.789062 584.699219 C 820.472656 587.070312 818.097656 589.390625 815.664062 591.652344 C 813.230469 593.914062 810.738281 596.121094 808.191406 598.269531 C 805.644531 600.417969 803.042969 602.503906 800.386719 604.53125 C 797.734375 606.5625 795.027344 608.527344 792.273438 610.429688 C 789.519531 612.332031 786.71875 614.167969 783.871094 615.941406 C 781.019531 617.714844 778.128906 619.421875 775.195312 621.058594 C 772.257812 622.699219 769.28125 624.269531 766.265625 625.769531 C 763.253906 627.269531 760.199219 628.699219 757.113281 630.0625 C 754.023438 631.421875 750.902344 632.707031 747.75 633.921875 C 744.597656 635.136719 741.417969 636.277344 738.207031 637.34375 C 734.996094 638.410156 731.757812 639.402344 728.5 640.320312 C 725.238281 641.234375 721.957031 642.074219 718.65625 642.839844 C 715.351562 643.601562 712.03125 644.289062 708.695312 644.898438 C 705.359375 645.507812 702.011719 646.039062 698.648438 646.492188 C 695.285156 646.949219 691.914062 647.324219 688.535156 647.621094 C 685.152344 647.917969 681.769531 648.132812 678.378906 648.273438 C 674.988281 648.410156 671.597656 648.472656 668.207031 648.453125 C 664.8125 648.433594 661.425781 648.335938 658.039062 648.160156 C 654.65625 647.980469 651.277344 647.726562 647.90625 647.390625 C 644.539062 647.058594 641.179688 646.644531 637.832031 646.152344 C 634.484375 645.664062 631.152344 645.09375 627.835938 644.445312 C 624.519531 643.800781 621.222656 643.074219 617.945312 642.277344 C 614.667969 641.476562 611.414062 640.597656 608.183594 639.644531 C 604.953125 638.691406 601.746094 637.664062 598.570312 636.5625 C 595.394531 635.460938 592.25 634.285156 589.136719 633.035156 C 586.023438 631.785156 582.945312 630.460938 579.898438 629.070312 C 576.855469 627.675781 573.851562 626.210938 570.882812 624.675781 C 567.917969 623.140625 564.992188 621.539062 562.109375 619.867188 C 559.226562 618.195312 556.390625 616.457031 553.597656 614.652344 C 550.804688 612.847656 548.0625 610.980469 545.371094 609.046875 C 542.675781 607.113281 540.035156 605.117188 537.445312 603.0625 C 534.855469 601.003906 532.324219 598.886719 529.84375 596.710938 C 527.367188 594.535156 524.945312 592.300781 522.582031 590.011719 C 520.222656 587.722656 517.921875 585.378906 515.679688 582.980469 C 513.441406 580.582031 511.265625 578.132812 509.152344 575.628906 C 507.042969 573.128906 504.996094 570.582031 503.015625 567.984375 C 501.039062 565.386719 499.125 562.742188 497.285156 560.054688 C 495.445312 557.367188 493.671875 554.640625 491.972656 551.867188 C 490.273438 549.097656 488.648438 546.285156 487.09375 543.4375 C 485.539062 540.589844 484.0625 537.707031 482.65625 534.789062 C 481.253906 531.867188 479.925781 528.917969 478.675781 525.9375 C 477.425781 522.953125 476.253906 519.945312 475.160156 516.90625 C 474.066406 513.867188 473.050781 510.808594 472.113281 507.71875 C 471.179688 504.632812 470.324219 501.527344 469.550781 498.398438 C 468.773438 495.269531 468.082031 492.125 467.472656 488.964844 C 466.859375 485.804688 466.332031 482.628906 465.882812 479.441406 C 465.4375 476.253906 465.074219 473.058594 464.792969 469.851562 C 464.507812 466.644531 464.3125 463.433594 464.195312 460.21875 C 464.082031 457 464.050781 453.78125 464.101562 450.5625 C 464.152344 447.34375 464.285156 444.125 464.503906 440.910156 C 464.722656 437.695312 465.023438 434.488281 465.40625 431.285156 C 465.789062 428.082031 466.253906 424.890625 466.804688 421.707031 C 467.351562 418.527344 467.980469 415.359375 468.695312 412.203125 C 469.40625 409.050781 470.199219 405.914062 471.074219 402.796875 C 471.945312 399.675781 472.898438 396.582031 473.933594 393.503906 C 474.96875 390.429688 476.078125 387.378906 477.269531 384.355469 C 478.460938 381.328125 479.730469 378.332031 481.074219 375.367188 C 482.421875 372.398438 483.839844 369.464844 485.335938 366.5625 C 486.835938 363.660156 488.402344 360.792969 490.046875 357.960938 C 491.691406 355.128906 493.40625 352.339844 495.195312 349.585938 C 496.984375 346.835938 498.839844 344.125 500.769531 341.460938 C 502.695312 338.792969 504.6875 336.171875 506.75 333.597656 C 508.8125 331.023438 510.9375 328.496094 513.128906 326.019531 C 515.320312 323.542969 517.574219 321.121094 519.890625 318.746094 C 522.207031 316.375 524.582031 314.054688 527.015625 311.792969 C 529.449219 309.53125 531.941406 307.324219 534.488281 305.175781 C 537.035156 303.027344 539.636719 300.941406 542.292969 298.910156 C 544.945312 296.882812 547.648438 294.917969 550.40625 293.015625 C 553.160156 291.113281 555.960938 289.277344 558.808594 287.503906 C 561.65625 285.730469 564.550781 284.023438 567.484375 282.382812 C 570.421875 280.746094 573.394531 279.175781 576.410156 277.675781 C 579.425781 276.171875 582.480469 274.742188 585.566406 273.382812 C 588.65625 272.023438 591.773438 270.738281 594.929688 269.523438 C 598.082031 268.308594 601.261719 267.167969 604.472656 266.101562 C 607.683594 265.035156 610.921875 264.042969 614.179688 263.125 C 617.441406 262.210938 620.722656 261.371094 624.023438 260.605469 C 627.328125 259.84375 630.648438 259.15625 633.984375 258.546875 C 637.320312 257.9375 640.667969 257.40625 644.03125 256.949219 C 647.394531 256.496094 650.765625 256.121094 654.144531 255.824219 C 657.527344 255.527344 660.910156 255.3125 664.300781 255.171875 C 667.691406 255.03125 671.082031 254.972656 674.472656 254.992188 C 677.867188 255.011719 681.253906 255.109375 684.640625 255.285156 C 688.023438 255.460938 691.402344 255.71875 694.773438 256.050781 C 698.140625 256.386719 701.5 256.800781 704.847656 257.292969 C 708.195312 257.78125 711.527344 258.351562 714.84375 259 C 718.160156 259.644531 721.457031 260.367188 724.734375 261.167969 C 728.011719 261.96875 731.265625 262.847656 734.496094 263.800781 C 737.726562 264.753906 740.929688 265.78125 744.105469 266.882812 C 747.285156 267.984375 750.429688 269.160156 753.542969 270.410156 C 756.65625 271.660156 759.734375 272.980469 762.777344 274.375 C 765.824219 275.769531 768.828125 277.234375 771.796875 278.769531 C 774.761719 280.300781 777.6875 281.90625 780.570312 283.578125 C 783.453125 285.25 786.289062 286.988281 789.082031 288.792969 C 791.875 290.59375 794.617188 292.464844 797.308594 294.398438 C 800.003906 296.332031 802.644531 298.324219 805.234375 300.382812 C 807.824219 302.441406 810.355469 304.558594 812.835938 306.734375 C 815.3125 308.910156 817.734375 311.144531 820.097656 313.433594 C 822.457031 315.722656 824.757812 318.066406 827 320.464844 C 829.238281 322.863281 831.414062 325.3125 833.527344 327.8125 C 835.636719 330.316406 837.683594 332.863281 839.664062 335.460938 C 841.640625 338.058594 843.550781 340.703125 845.394531 343.390625 C 847.234375 346.078125 849.007812 348.804688 850.707031 351.578125 C 852.40625 354.347656 854.03125 357.160156 855.585938 360.007812 C 857.140625 362.855469 858.617188 365.738281 860.023438 368.65625 C 861.425781 371.578125 862.753906 374.527344 864.003906 377.507812 C 865.253906 380.488281 866.425781 383.5 867.519531 386.539062 C 868.613281 389.574219 869.628906 392.636719 870.566406 395.722656 C 871.5 398.8125 872.355469 401.917969 873.128906 405.046875 C 873.902344 408.171875 874.597656 411.316406 875.207031 414.480469 C 875.820312 417.640625 876.347656 420.816406 876.796875 424.003906 C 877.242188 427.191406 877.605469 430.386719 877.886719 433.59375 Z M 877.886719 433.59375 " fill-opacity="1" fill-rule="nonzero"/><path fill="#f6c79d" d="M 969.625 405.101562 C 969.9375 406.105469 970.222656 407.117188 970.476562 408.132812 C 970.730469 409.152344 970.957031 410.179688 971.152344 411.214844 C 971.34375 412.25 971.511719 413.289062 971.644531 414.335938 C 971.777344 415.378906 971.882812 416.429688 971.957031 417.488281 C 972.03125 418.542969 972.074219 419.601562 972.089844 420.664062 C 972.101562 421.730469 972.085938 422.792969 972.039062 423.863281 C 971.988281 424.929688 971.910156 426 971.804688 427.066406 C 971.695312 428.136719 971.558594 429.207031 971.390625 430.277344 C 971.21875 431.34375 971.023438 432.414062 970.792969 433.480469 C 970.566406 434.546875 970.304688 435.609375 970.019531 436.667969 C 969.730469 437.730469 969.414062 438.785156 969.066406 439.839844 C 968.71875 440.890625 968.34375 441.9375 967.9375 442.980469 C 967.535156 444.019531 967.101562 445.054688 966.640625 446.082031 C 966.179688 447.113281 965.6875 448.132812 965.171875 449.144531 C 964.652344 450.15625 964.109375 451.160156 963.535156 452.15625 C 962.964844 453.148438 962.367188 454.132812 961.742188 455.105469 C 961.117188 456.082031 960.464844 457.042969 959.789062 457.996094 C 959.109375 458.945312 958.410156 459.882812 957.683594 460.808594 C 956.957031 461.734375 956.203125 462.644531 955.429688 463.542969 C 954.652344 464.441406 953.855469 465.328125 953.03125 466.195312 C 952.210938 467.0625 951.367188 467.917969 950.5 468.753906 C 949.636719 469.589844 948.746094 470.410156 947.839844 471.214844 C 946.929688 472.015625 946 472.800781 945.054688 473.570312 C 944.105469 474.335938 943.136719 475.085938 942.148438 475.816406 C 941.164062 476.546875 940.160156 477.257812 939.136719 477.945312 C 938.113281 478.636719 937.074219 479.308594 936.019531 479.957031 C 934.964844 480.609375 933.894531 481.234375 932.808594 481.84375 C 931.722656 482.449219 930.621094 483.035156 929.507812 483.601562 C 928.394531 484.164062 927.269531 484.703125 926.128906 485.222656 C 924.992188 485.742188 923.839844 486.234375 922.679688 486.707031 C 921.519531 487.179688 920.347656 487.625 919.164062 488.050781 C 917.984375 488.472656 916.792969 488.875 915.597656 489.25 C 914.398438 489.625 913.195312 489.972656 911.980469 490.300781 C 910.769531 490.625 909.550781 490.925781 908.328125 491.199219 C 907.105469 491.476562 905.878906 491.726562 904.648438 491.949219 C 903.417969 492.171875 902.183594 492.371094 900.949219 492.542969 C 899.710938 492.714844 898.472656 492.863281 897.234375 492.984375 C 895.996094 493.105469 894.761719 493.199219 893.523438 493.265625 C 892.285156 493.335938 891.050781 493.375 889.816406 493.390625 C 888.582031 493.40625 887.351562 493.398438 886.125 493.359375 C 884.898438 493.324219 883.675781 493.261719 882.460938 493.171875 C 881.242188 493.082031 880.03125 492.96875 878.828125 492.824219 C 877.621094 492.683594 876.425781 492.515625 875.238281 492.324219 C 874.046875 492.128906 872.867188 491.910156 871.699219 491.667969 C 870.527344 491.421875 869.367188 491.152344 868.21875 490.855469 C 867.070312 490.5625 865.933594 490.238281 864.808594 489.894531 C 863.683594 489.550781 862.570312 489.179688 861.472656 488.785156 C 860.375 488.390625 859.289062 487.96875 858.222656 487.527344 C 857.152344 487.082031 856.097656 486.617188 855.0625 486.125 C 854.023438 485.636719 853.003906 485.121094 852.003906 484.585938 C 851 484.050781 850.015625 483.492188 849.050781 482.910156 C 848.085938 482.328125 847.140625 481.726562 846.210938 481.101562 C 845.285156 480.476562 844.378906 479.832031 843.496094 479.164062 C 842.609375 478.496094 841.746094 477.808594 840.90625 477.105469 C 840.0625 476.398438 839.246094 475.671875 838.449219 474.925781 C 837.652344 474.179688 836.882812 473.417969 836.132812 472.632812 C 835.386719 471.851562 834.660156 471.050781 833.960938 470.234375 C 833.261719 469.417969 832.589844 468.585938 831.941406 467.734375 C 831.292969 466.886719 830.671875 466.019531 830.078125 465.140625 C 829.480469 464.257812 828.914062 463.363281 828.371094 462.453125 C 827.828125 461.542969 827.316406 460.621094 826.828125 459.6875 C 826.34375 458.75 825.886719 457.800781 825.457031 456.839844 C 825.027344 455.882812 824.625 454.910156 824.253906 453.925781 C 823.882812 452.945312 823.539062 451.953125 823.222656 450.949219 C 822.910156 449.949219 822.625 448.9375 822.371094 447.917969 C 822.117188 446.898438 821.890625 445.875 821.699219 444.839844 C 821.503906 443.804688 821.339844 442.765625 821.203125 441.71875 C 821.070312 440.671875 820.964844 439.621094 820.890625 438.566406 C 820.816406 437.511719 820.773438 436.453125 820.757812 435.386719 C 820.746094 434.324219 820.761719 433.261719 820.8125 432.191406 C 820.859375 431.125 820.9375 430.054688 821.042969 428.984375 C 821.152344 427.917969 821.289062 426.847656 821.460938 425.777344 C 821.628906 424.707031 821.828125 423.640625 822.054688 422.574219 C 822.285156 421.507812 822.542969 420.445312 822.828125 419.382812 C 823.117188 418.324219 823.433594 417.265625 823.78125 416.214844 C 824.128906 415.164062 824.503906 414.117188 824.910156 413.074219 C 825.3125 412.03125 825.746094 411 826.207031 409.96875 C 826.671875 408.941406 827.160156 407.921875 827.675781 406.910156 C 828.195312 405.894531 828.738281 404.894531 829.3125 403.898438 C 829.882812 402.902344 830.480469 401.921875 831.105469 400.945312 C 831.730469 399.972656 832.382812 399.011719 833.058594 398.058594 C 833.738281 397.109375 834.4375 396.171875 835.164062 395.246094 C 835.894531 394.320312 836.644531 393.40625 837.417969 392.507812 C 838.195312 391.609375 838.992188 390.726562 839.816406 389.859375 C 840.636719 388.992188 841.480469 388.136719 842.347656 387.300781 C 843.214844 386.464844 844.101562 385.644531 845.007812 384.839844 C 845.917969 384.039062 846.847656 383.253906 847.796875 382.484375 C 848.742188 381.71875 849.710938 380.96875 850.699219 380.238281 C 851.683594 379.507812 852.691406 378.796875 853.710938 378.105469 C 854.734375 377.417969 855.773438 376.746094 856.828125 376.097656 C 857.882812 375.445312 858.953125 374.816406 860.039062 374.210938 C 861.125 373.601562 862.226562 373.015625 863.339844 372.453125 C 864.453125 371.890625 865.578125 371.351562 866.71875 370.832031 C 867.855469 370.3125 869.007812 369.820312 870.167969 369.347656 C 871.332031 368.875 872.5 368.429688 873.683594 368.003906 C 874.863281 367.582031 876.054688 367.179688 877.25 366.804688 C 878.449219 366.429688 879.65625 366.078125 880.867188 365.753906 C 882.078125 365.429688 883.296875 365.128906 884.519531 364.851562 C 885.742188 364.578125 886.96875 364.328125 888.199219 364.105469 C 889.429688 363.878906 890.664062 363.683594 891.898438 363.507812 C 893.136719 363.335938 894.375 363.191406 895.613281 363.070312 C 896.851562 362.949219 898.089844 362.855469 899.324219 362.789062 C 900.5625 362.71875 901.796875 362.675781 903.03125 362.660156 C 904.265625 362.644531 905.496094 362.65625 906.722656 362.691406 C 907.949219 362.730469 909.171875 362.792969 910.390625 362.882812 C 911.605469 362.972656 912.816406 363.085938 914.019531 363.226562 C 915.226562 363.371094 916.421875 363.535156 917.609375 363.730469 C 918.800781 363.921875 919.980469 364.140625 921.148438 364.386719 C 922.320312 364.632812 923.480469 364.902344 924.628906 365.199219 C 925.777344 365.492188 926.914062 365.8125 928.039062 366.160156 C 929.164062 366.503906 930.277344 366.875 931.375 367.269531 C 932.472656 367.664062 933.558594 368.082031 934.625 368.527344 C 935.695312 368.96875 936.75 369.4375 937.785156 369.925781 C 938.824219 370.417969 939.84375 370.929688 940.84375 371.46875 C 941.847656 372.003906 942.832031 372.5625 943.796875 373.144531 C 944.761719 373.726562 945.710938 374.328125 946.636719 374.953125 C 947.5625 375.578125 948.46875 376.222656 949.351562 376.890625 C 950.238281 377.558594 951.101562 378.242188 951.941406 378.949219 C 952.785156 379.65625 953.601562 380.382812 954.398438 381.128906 C 955.195312 381.875 955.964844 382.636719 956.714844 383.417969 C 957.464844 384.203125 958.1875 385 958.886719 385.816406 C 959.585938 386.636719 960.257812 387.46875 960.90625 388.320312 C 961.554688 389.167969 962.175781 390.035156 962.769531 390.914062 C 963.367188 391.796875 963.933594 392.691406 964.476562 393.601562 C 965.019531 394.507812 965.53125 395.433594 966.019531 396.367188 C 966.503906 397.304688 966.960938 398.253906 967.390625 399.210938 C 967.820312 400.171875 968.222656 401.144531 968.59375 402.125 C 968.96875 403.109375 969.308594 404.101562 969.625 405.101562 Z M 969.625 405.101562 " fill-opacity="1" fill-rule="nonzero"/><path fill="#f6c79d" d="M 469.121094 430.320312 C 471.140625 430.449219 473.152344 430.660156 475.152344 430.953125 C 477.152344 431.25 479.132812 431.625 481.09375 432.085938 C 483.054688 432.542969 484.988281 433.082031 486.890625 433.699219 C 488.792969 434.316406 490.65625 435.007812 492.480469 435.777344 C 494.308594 436.546875 496.085938 437.390625 497.816406 438.308594 C 499.546875 439.222656 501.222656 440.207031 502.84375 441.257812 C 504.464844 442.3125 506.019531 443.429688 507.515625 444.605469 C 509.007812 445.785156 510.429688 447.023438 511.78125 448.316406 C 513.136719 449.613281 514.410156 450.957031 515.609375 452.355469 C 516.808594 453.75 517.921875 455.191406 518.953125 456.679688 C 519.988281 458.167969 520.933594 459.691406 521.789062 461.25 C 522.648438 462.8125 523.410156 464.40625 524.085938 466.027344 C 524.757812 467.648438 525.335938 469.292969 525.820312 470.957031 C 526.300781 472.625 526.6875 474.304688 526.976562 475.996094 C 527.265625 477.691406 527.453125 479.390625 527.542969 481.097656 C 527.632812 482.804688 527.625 484.507812 527.515625 486.210938 C 527.40625 487.914062 527.199219 489.605469 526.894531 491.285156 C 526.589844 492.964844 526.1875 494.628906 525.683594 496.273438 C 525.183594 497.917969 524.589844 499.535156 523.898438 501.125 C 523.207031 502.714844 522.425781 504.273438 521.554688 505.796875 C 520.679688 507.320312 519.71875 508.800781 518.671875 510.242188 C 517.621094 511.683594 516.492188 513.074219 515.277344 514.417969 C 514.066406 515.761719 512.777344 517.050781 511.410156 518.285156 C 510.046875 519.515625 508.609375 520.691406 507.105469 521.804688 C 505.597656 522.914062 504.03125 523.960938 502.398438 524.941406 C 500.769531 525.921875 499.082031 526.832031 497.339844 527.667969 C 495.601562 528.507812 493.8125 529.273438 491.980469 529.960938 C 490.148438 530.648438 488.277344 531.261719 486.367188 531.792969 C 484.460938 532.324219 482.523438 532.777344 480.558594 533.148438 C 478.59375 533.519531 476.609375 533.804688 474.605469 534.011719 C 472.601562 534.21875 470.589844 534.339844 468.566406 534.378906 C 466.542969 534.417969 464.523438 534.371094 462.503906 534.246094 C 460.480469 534.117188 458.472656 533.902344 456.46875 533.609375 C 454.46875 533.3125 452.488281 532.9375 450.527344 532.480469 C 448.566406 532.019531 446.636719 531.484375 444.734375 530.867188 C 442.832031 530.25 440.964844 529.554688 439.140625 528.785156 C 437.316406 528.015625 435.535156 527.171875 433.804688 526.257812 C 432.074219 525.339844 430.398438 524.355469 428.777344 523.304688 C 427.160156 522.253906 425.601562 521.136719 424.109375 519.957031 C 422.613281 518.777344 421.191406 517.542969 419.839844 516.246094 C 418.488281 514.953125 417.210938 513.605469 416.011719 512.210938 C 414.816406 510.8125 413.699219 509.371094 412.667969 507.882812 C 411.632812 506.398438 410.6875 504.875 409.832031 503.3125 C 408.976562 501.75 408.210938 500.160156 407.535156 498.539062 C 406.863281 496.914062 406.285156 495.273438 405.800781 493.605469 C 405.320312 491.941406 404.933594 490.261719 404.644531 488.566406 C 404.359375 486.871094 404.167969 485.171875 404.078125 483.464844 C 403.988281 481.757812 403.996094 480.054688 404.105469 478.351562 C 404.214844 476.652344 404.421875 474.960938 404.726562 473.277344 C 405.03125 471.597656 405.4375 469.933594 405.9375 468.292969 C 406.4375 466.648438 407.03125 465.03125 407.722656 463.4375 C 408.414062 461.847656 409.195312 460.289062 410.070312 458.765625 C 410.941406 457.246094 411.902344 455.761719 412.953125 454.324219 C 414 452.882812 415.128906 451.488281 416.34375 450.148438 C 417.554688 448.804688 418.84375 447.515625 420.210938 446.28125 C 421.578125 445.046875 423.011719 443.875 424.519531 442.761719 C 426.023438 441.648438 427.59375 440.601562 429.222656 439.621094 C 430.855469 438.640625 432.539062 437.734375 434.28125 436.894531 C 436.019531 436.054688 437.808594 435.292969 439.640625 434.601562 C 441.472656 433.914062 443.34375 433.304688 445.253906 432.773438 C 447.164062 432.238281 449.097656 431.789062 451.066406 431.417969 C 453.03125 431.046875 455.015625 430.757812 457.015625 430.550781 C 459.019531 430.347656 461.035156 430.222656 463.054688 430.183594 C 465.078125 430.144531 467.097656 430.191406 469.121094 430.320312 Z M 469.121094 430.320312 " fill-opacity="1" fill-rule="nonzero"/><path fill="#ffffff" d="M 633.222656 450.789062 C 633.222656 451.253906 633.222656 451.71875 633.222656 452.648438 C 630.433594 482.402344 597.425781 504.714844 558.84375 502.390625 C 553.261719 501.925781 547.21875 500.996094 542.105469 499.601562 C 511.425781 491.699219 490.039062 468.457031 491.433594 441.957031 C 493.292969 411.273438 526.765625 388.03125 565.816406 390.820312 C 604.863281 392.679688 635.082031 419.644531 633.222656 450.789062 Z M 633.222656 450.789062 " fill-opacity="1" fill-rule="nonzero"/><path fill="#ffffff" d="M 815.921875 428.476562 C 812.667969 455.4375 790.816406 481.007812 758.742188 490.769531 C 748.976562 494.023438 738.75 495.417969 729.453125 494.953125 C 699.234375 494.488281 672.738281 478.21875 664.835938 452.183594 C 654.140625 417.785156 678.78125 379.664062 720.15625 366.648438 C 761.53125 353.628906 803.367188 371.296875 814.0625 405.230469 C 815.921875 413.132812 816.386719 421.039062 815.921875 428.476562 Z M 815.921875 428.476562 " fill-opacity="1" fill-rule="nonzero"/><path fill="#000000" d="M 655.070312 538.652344 C 639.265625 538.652344 628.109375 527.960938 627.644531 527.496094 L 634.152344 520.988281 C 634.152344 520.988281 643.914062 530.285156 656.933594 529.355469 C 665.765625 528.890625 674.132812 523.3125 682.035156 513.546875 L 689.472656 519.128906 C 679.710938 531.214844 669.019531 537.722656 657.398438 538.1875 C 656.464844 538.652344 655.535156 538.652344 655.070312 538.652344 Z M 655.070312 538.652344 " fill-opacity="1" fill-rule="nonzero"/><path fill="#000000" d="M 632.757812 452.183594 C 629.96875 481.9375 596.960938 504.25 558.378906 501.925781 C 552.796875 501.460938 546.753906 500.53125 541.640625 499.136719 C 534.667969 490.304688 530.949219 479.613281 530.949219 467.527344 C 530.949219 438.703125 554.191406 415.457031 583.015625 415.457031 C 606.722656 415.457031 626.25 430.800781 632.757812 452.183594 Z M 632.757812 452.183594 " fill-opacity="1" fill-rule="nonzero"/><path fill="#000000" d="M 815.921875 428.476562 C 812.667969 455.4375 790.816406 481.007812 758.742188 490.769531 C 748.976562 494.023438 738.75 495.417969 729.453125 494.953125 C 716.902344 484.726562 708.535156 468.921875 708.535156 451.253906 C 708.535156 420.109375 733.636719 395.003906 764.785156 395.003906 C 787.097656 395.46875 807.089844 408.949219 815.921875 428.476562 Z M 815.921875 428.476562 " fill-opacity="1" fill-rule="nonzero"/><path fill="#ffffff" d="M 795.464844 401.511719 C 795.464844 402.105469 795.4375 402.699219 795.378906 403.289062 C 795.320312 403.878906 795.234375 404.46875 795.117188 405.050781 C 795 405.632812 794.859375 406.207031 794.683594 406.777344 C 794.511719 407.34375 794.3125 407.902344 794.085938 408.449219 C 793.859375 409 793.605469 409.535156 793.324219 410.058594 C 793.046875 410.582031 792.738281 411.089844 792.410156 411.585938 C 792.082031 412.078125 791.726562 412.554688 791.351562 413.015625 C 790.972656 413.472656 790.574219 413.914062 790.15625 414.332031 C 789.734375 414.753906 789.296875 415.152344 788.835938 415.527344 C 788.378906 415.902344 787.902344 416.257812 787.40625 416.585938 C 786.914062 416.917969 786.40625 417.222656 785.882812 417.503906 C 785.359375 417.78125 784.824219 418.035156 784.273438 418.261719 C 783.726562 418.488281 783.167969 418.691406 782.597656 418.863281 C 782.03125 419.035156 781.453125 419.179688 780.871094 419.292969 C 780.289062 419.410156 779.703125 419.496094 779.113281 419.554688 C 778.523438 419.613281 777.929688 419.644531 777.335938 419.644531 C 776.742188 419.644531 776.148438 419.613281 775.558594 419.554688 C 774.96875 419.496094 774.382812 419.410156 773.796875 419.292969 C 773.214844 419.179688 772.640625 419.035156 772.074219 418.863281 C 771.503906 418.691406 770.945312 418.488281 770.398438 418.261719 C 769.847656 418.035156 769.3125 417.78125 768.789062 417.503906 C 768.265625 417.222656 767.757812 416.917969 767.261719 416.585938 C 766.769531 416.257812 766.292969 415.902344 765.832031 415.527344 C 765.375 415.152344 764.933594 414.753906 764.515625 414.332031 C 764.09375 413.914062 763.699219 413.472656 763.320312 413.015625 C 762.945312 412.554688 762.589844 412.078125 762.261719 411.585938 C 761.929688 411.089844 761.625 410.582031 761.347656 410.058594 C 761.066406 409.535156 760.8125 409 760.585938 408.449219 C 760.359375 407.902344 760.160156 407.34375 759.984375 406.777344 C 759.8125 406.207031 759.667969 405.632812 759.554688 405.050781 C 759.4375 404.46875 759.351562 403.878906 759.292969 403.289062 C 759.234375 402.699219 759.207031 402.105469 759.207031 401.511719 C 759.207031 400.917969 759.234375 400.328125 759.292969 399.734375 C 759.351562 399.144531 759.4375 398.558594 759.554688 397.976562 C 759.667969 397.394531 759.8125 396.816406 759.984375 396.25 C 760.160156 395.679688 760.359375 395.121094 760.585938 394.574219 C 760.8125 394.027344 761.066406 393.488281 761.347656 392.964844 C 761.625 392.441406 761.929688 391.933594 762.261719 391.441406 C 762.589844 390.945312 762.945312 390.46875 763.320312 390.011719 C 763.699219 389.550781 764.09375 389.113281 764.515625 388.691406 C 764.933594 388.273438 765.375 387.875 765.832031 387.496094 C 766.292969 387.121094 766.769531 386.765625 767.261719 386.4375 C 767.757812 386.109375 768.265625 385.804688 768.789062 385.523438 C 769.3125 385.242188 769.847656 384.988281 770.398438 384.761719 C 770.945312 384.535156 771.503906 384.335938 772.074219 384.164062 C 772.640625 383.992188 773.214844 383.847656 773.796875 383.730469 C 774.382812 383.613281 774.96875 383.527344 775.558594 383.46875 C 776.148438 383.410156 776.742188 383.382812 777.335938 383.382812 C 777.929688 383.382812 778.523438 383.410156 779.113281 383.46875 C 779.703125 383.527344 780.289062 383.613281 780.871094 383.730469 C 781.453125 383.847656 782.03125 383.992188 782.597656 384.164062 C 783.167969 384.335938 783.726562 384.535156 784.273438 384.761719 C 784.824219 384.988281 785.359375 385.242188 785.882812 385.523438 C 786.40625 385.804688 786.914062 386.109375 787.410156 386.4375 C 787.902344 386.765625 788.378906 387.121094 788.835938 387.496094 C 789.296875 387.875 789.734375 388.273438 790.15625 388.691406 C 790.574219 389.113281 790.972656 389.550781 791.351562 390.011719 C 791.726562 390.46875 792.082031 390.945312 792.410156 391.441406 C 792.738281 391.933594 793.046875 392.441406 793.324219 392.964844 C 793.605469 393.488281 793.859375 394.027344 794.085938 394.574219 C 794.3125 395.121094 794.511719 395.679688 794.683594 396.25 C 794.859375 396.816406 795 397.394531 795.117188 397.976562 C 795.234375 398.558594 795.320312 399.144531 795.378906 399.734375 C 795.4375 400.328125 795.464844 400.917969 795.464844 401.511719 Z M 795.464844 401.511719 " fill-opacity="1" fill-rule="nonzero"/><path fill="#ffffff" d="M 604.863281 419.644531 C 604.863281 420.648438 604.765625 421.648438 604.570312 422.636719 C 604.375 423.625 604.082031 424.582031 603.699219 425.511719 C 603.3125 426.445312 602.839844 427.328125 602.28125 428.164062 C 601.71875 429.003906 601.085938 429.777344 600.371094 430.492188 C 599.660156 431.203125 598.882812 431.839844 598.046875 432.398438 C 597.210938 432.957031 596.324219 433.429688 595.394531 433.816406 C 594.464844 434.203125 593.503906 434.492188 592.515625 434.6875 C 591.527344 434.886719 590.53125 434.984375 589.523438 434.984375 C 588.515625 434.984375 587.519531 434.886719 586.53125 434.6875 C 585.542969 434.492188 584.582031 434.203125 583.652344 433.816406 C 582.722656 433.429688 581.839844 432.957031 581 432.398438 C 580.164062 431.839844 579.386719 431.203125 578.675781 430.492188 C 577.964844 429.777344 577.328125 429.003906 576.769531 428.164062 C 576.207031 427.328125 575.734375 426.445312 575.351562 425.511719 C 574.964844 424.582031 574.675781 423.625 574.476562 422.636719 C 574.28125 421.648438 574.183594 420.648438 574.183594 419.644531 C 574.183594 418.636719 574.28125 417.636719 574.476562 416.648438 C 574.675781 415.660156 574.964844 414.703125 575.351562 413.773438 C 575.734375 412.839844 576.207031 411.957031 576.769531 411.121094 C 577.328125 410.28125 577.964844 409.507812 578.675781 408.796875 C 579.386719 408.082031 580.164062 407.445312 581 406.886719 C 581.839844 406.328125 582.722656 405.855469 583.652344 405.46875 C 584.582031 405.085938 585.542969 404.792969 586.53125 404.597656 C 587.519531 404.398438 588.515625 404.300781 589.523438 404.300781 C 590.53125 404.300781 591.527344 404.398438 592.515625 404.597656 C 593.503906 404.792969 594.464844 405.085938 595.394531 405.46875 C 596.324219 405.855469 597.210938 406.328125 598.046875 406.886719 C 598.882812 407.445312 599.660156 408.082031 600.371094 408.796875 C 601.085938 409.507812 601.71875 410.28125 602.28125 411.121094 C 602.839844 411.957031 603.3125 412.839844 603.699219 413.773438 C 604.082031 414.703125 604.375 415.660156 604.570312 416.648438 C 604.765625 417.636719 604.863281 418.636719 604.863281 419.644531 Z M 604.863281 419.644531 " fill-opacity="1" fill-rule="nonzero"/><path fill="#000000" d="M 938.648438 411.273438 C 913.082031 388.960938 887.511719 408.019531 886.117188 408.949219 L 880.539062 401.511719 C 881.003906 401.046875 913.082031 376.875 944.691406 404.300781 Z M 938.648438 411.273438 " fill-opacity="1" fill-rule="nonzero"/><path fill="#000000" d="M 431 473.570312 L 422.167969 470.78125 C 424.957031 462.410156 435.648438 448.464844 458.894531 454.042969 L 456.570312 462.875 C 436.113281 458.226562 431 473.105469 431 473.570312 Z M 431 473.570312 " fill-opacity="1" fill-rule="nonzero"/><path fill="#93c5e4" d="M 1050.683594 510.292969 C 1050.683594 510.292969 1041.851562 564.21875 1020.933594 624.191406 C 999.546875 662.308594 971.65625 695.78125 938.183594 723.675781 C 896.808594 758.074219 847.53125 783.179688 793.605469 795.730469 C 817.316406 771.558594 848.925781 722.746094 868.453125 625.585938 C 875.425781 591.648438 880.539062 552.132812 883.328125 505.179688 Z M 1050.683594 510.292969 " fill-opacity="1" fill-rule="nonzero"/><path fill="#000000" d="M 892.160156 498.671875 C 881.003906 498.671875 873.101562 496.347656 872.636719 496.347656 L 875.425781 487.515625 C 876.820312 487.980469 913.546875 498.207031 943.761719 468.457031 L 950.269531 474.964844 C 930.28125 494.488281 907.96875 498.671875 892.160156 498.671875 Z M 892.160156 498.671875 " fill-opacity="1" fill-rule="nonzero"/><path fill="#000000" d="M 992.574219 428.941406 L 983.277344 427.082031 C 996.757812 363.390625 983.277344 315.972656 983.277344 315.507812 L 992.109375 312.71875 C 993.039062 314.578125 1006.519531 362.460938 992.574219 428.941406 Z M 992.574219 428.941406 " fill-opacity="1" fill-rule="nonzero"/><path fill="#000000" d="M 941.902344 367.578125 L 932.605469 367.113281 C 933.070312 341.078125 928.421875 314.578125 928.421875 314.578125 L 937.71875 312.71875 C 937.71875 314.113281 942.832031 340.613281 941.902344 367.578125 Z M 941.902344 367.578125 " fill-opacity="1" fill-rule="nonzero"/><path fill="#000000" d="M 967.472656 423.363281 C 965.148438 402.90625 957.710938 387.566406 945.15625 377.804688 C 925.167969 362.460938 899.132812 366.648438 898.667969 367.113281 L 897.273438 357.8125 C 898.667969 357.8125 927.957031 352.699219 950.734375 370.367188 C 965.613281 381.523438 973.980469 398.722656 976.304688 421.96875 Z M 967.472656 423.363281 " fill-opacity="1" fill-rule="nonzero"/><path fill="#000000" d="M 842.417969 728.324219 L 834.050781 724.140625 C 847.066406 698.105469 863.804688 625.121094 864.269531 624.191406 L 873.101562 626.050781 C 872.636719 629.769531 855.898438 701.359375 842.417969 728.324219 Z M 842.417969 728.324219 " fill-opacity="1" fill-rule="nonzero"/><g clip-path="url(#9e2d7a910c)"><path fill="#000000" d="M 763.972656 676.332031 L 773.242188 675.613281 L 783.269531 804.925781 L 774 805.644531 Z M 763.972656 676.332031 " fill-opacity="1" fill-rule="nonzero"/></g><path fill="#000000" d="M 1018.125 631.527344 L 1038.785156 545.652344 L 1047.824219 547.824219 L 1027.167969 633.703125 Z M 1018.125 631.527344 " fill-opacity="1" fill-rule="nonzero"/><path fill="#000000" d="M 494.6875 565.148438 C 470.980469 537.257812 463.542969 493.558594 463.078125 491.699219 L 472.375 490.304688 C 472.375 490.769531 479.8125 533.074219 502.125 559.105469 Z M 494.6875 565.148438 " fill-opacity="1" fill-rule="nonzero"/><path fill="#000000" d="M 861.945312 373.15625 C 861.945312 373.15625 808.019531 387.101562 802.902344 326.667969 C 802.902344 326.667969 702.488281 314.578125 597.890625 357.8125 C 597.890625 357.8125 577.4375 290.40625 610.910156 255.074219 C 610.910156 255.074219 658.328125 211.375 788.957031 237.410156 C 862.875 297.84375 861.945312 373.15625 861.945312 373.15625 Z M 861.945312 373.15625 " fill-opacity="1" fill-rule="nonzero"/><g clip-path="url(#dfc70712ce)"><path fill="#000000" d="M 717.367188 185.808594 C 717.367188 185.808594 677.386719 65.871094 828.007812 4.503906 L 911.6875 73.773438 L 881.933594 87.71875 L 923.308594 93.761719 L 934.464844 163.027344 C 934.464844 163.027344 817.316406 137.925781 749.441406 192.78125 Z M 717.367188 185.808594 " fill-opacity="1" fill-rule="nonzero"/></g><path fill="#000000" d="M 610.910156 271.8125 C 610.910156 271.8125 579.296875 302.957031 575.578125 355.488281 L 538.851562 372.691406 C 538.851562 372.691406 510.960938 314.113281 551.867188 275.066406 L 635.546875 241.128906 Z M 610.910156 271.8125 " fill-opacity="1" fill-rule="nonzero"/><path fill="#000000" d="M 1079.042969 361.996094 L 1069.746094 361.996094 C 1070.675781 293.195312 1038.132812 256.003906 1037.667969 256.003906 L 1044.640625 249.960938 C 1046.035156 250.890625 1079.972656 289.011719 1079.042969 361.996094 Z M 1079.042969 361.996094 " fill-opacity="1" fill-rule="nonzero"/><path fill="#000000" d="M 670.414062 125.839844 C 670.414062 123.050781 668.554688 59.824219 715.042969 14.730469 L 721.550781 21.242188 C 678.316406 63.542969 679.710938 124.910156 679.710938 125.375 Z M 670.414062 125.839844 " fill-opacity="1" fill-rule="nonzero"/><path fill="#000000" d="M 646.238281 79.816406 L 636.941406 77.957031 C 637.871094 74.238281 644.84375 40.300781 658.792969 28.679688 L 664.835938 35.652344 C 655.070312 44.019531 648.097656 70.519531 646.238281 79.816406 Z M 646.238281 79.816406 " fill-opacity="1" fill-rule="nonzero"/><path fill="#000000" d="M 1108.796875 326.667969 L 1099.960938 323.878906 C 1108.332031 298.308594 1090.199219 268.09375 1090.199219 268.09375 L 1098.101562 263.441406 C 1098.566406 264.371094 1118.558594 297.378906 1108.796875 326.667969 Z M 1108.796875 326.667969 " fill-opacity="1" fill-rule="nonzero"/></svg>